<?xml version="1.0" encoding="utf-8"?>
<!-- Generator: Adobe Illustrator 19.2.1, SVG Export Plug-In . SVG Version: 6.00 Build 0)  -->
<svg version="1.1" xmlns="http://www.w3.org/2000/svg" xmlns:xlink="http://www.w3.org/1999/xlink" x="0px" y="0px"
	 viewBox="0 0 59.7 16.6" style="enable-background:new 0 0 59.7 16.6;" xml:space="preserve">
<style type="text/css">
	
		.Locator_x0020_map_x0020_main_x0020_country{fill-rule:evenodd;clip-rule:evenodd;fill:#FFFFFF;stroke:#93887E;stroke-width:0.25;stroke-miterlimit:3.8637;}
	.Locator_x0020_map_x0020_other_x0020_country{fill:#E6D3C9;}
	.Locator_x0020_map_x0020_sea{fill-rule:evenodd;clip-rule:evenodd;fill:#83C3E2;stroke:#FFFFFF;stroke-miterlimit:3.8637;}
	.st0{fill-rule:evenodd;clip-rule:evenodd;fill:#FFFFFF;}
	.st1{fill-rule:evenodd;clip-rule:evenodd;}
	.st2{fill:#F79747;}
	.st3{fill:#FFFFFF;}
	.st4{font-family:'SourceSansPro-Bold';}
	.st5{font-size:10px;}
</style>
<symbol  id="Deleted_Symbol_2" viewBox="-7.9 -5.2 15.8 10.3">
	<path d="M7.8,4.5l-0.5,0l0,0.3L6.7,4.9c0,0,0-0.1,0-0.2c0,0-0.1-0.2-0.1-0.3L-1,4.7l0,0.1l-3.7,0.1l0,0.1l-0.1,0.2l-0.5,0l-0.1-0.1
		l0-0.2l-0.1,0c0,0-0.3-0.2-0.6-0.4l0,0.1c0,0,0,0.1-0.1,0.1c-0.1,0-0.3-0.1-0.4-0.1c-0.1,0-0.3,0.1-0.5,0.1
		c-0.2-0.1-0.2-0.3-0.2-0.4c0-0.1,0.2-0.5,0.5-0.7c-0.1-0.1-0.1-0.2-0.1-0.3c0-0.1-0.2-0.8-1-0.8l-0.1-0.2l0-0.2c0,0,0.8,0,1.1-0.5
		c0.3-0.5,0.3-0.8,0.1-1.2C-6.8-0.1-7.9-3-7.9-3.3c0-0.3,0-1.1,0.2-1.2L-7-4.6C-7-4.6-7-4.8-7-4.8c0.1,0,1.9-0.3,2.3-0.3
		C-4.2-5.2-4.1-5.1-4-5c0,0.1,0,0.2-0.1,0.2c-0.1,0.1-0.1,0.3-0.1,0.3l-0.1,0C-4.1-4.4-4-4.2-3.9-3.9c0.1,0.5,0.7,2.3,0.8,2.8
		C-3-0.6-2.6-0.4-2.2-0.5c0.3-0.1,1.4-0.1,1.7-0.1c0.2,0,1.4,0.2,1.6,0.4l0,0.1c0,0-0.1,0.2,0,0.7c0.1,0.5,0.7,1.3,1.3,1.2l3.7,0
		L6,2l1.2,0c0,0,0.1,0.3,0.1,0.4c0,0.1-0.1,0.3-0.1,0.3l0,0.8l0.5,0c0,0,0.1,0,0.1,0.5C7.9,4.5,7.8,4.5,7.8,4.5z M-1-0.4
		C-2-0.3-2.7,0-2.7,0.7c0,0.4,0.3,0.7,0.7,0.9l0.3,0c0,0,0-0.1,0.1-0.2c0.2-0.1,0.2-0.1,0.2-0.1S-1.4,0-0.3,0l0.2,0.2
		c0,0-1.4,0.1-0.8,1.4l0.8,0c0.5-0.2,0.8-0.5,0.8-0.9C0.6,0.1-0.1-0.4-1-0.4z"/>
</symbol>
<g id="Background">
	<rect x="-54.8" y="-43.7" class="st0" width="255.1" height="197.4"/>
</g>
<g id="Picture">
	<g id="AFP">
	</g>
	<rect id="top_2_" x="-54.8" y="-45.7" class="st1" width="255.1" height="2"/>
	<g>
		<path class="st2" d="M0.9,1.8c0-0.8,0.6-1.4,1.4-1.4h54.8c0.8,0,1.4,0.6,1.4,1.4v13.5c0,0.8-0.6,1.4-1.4,1.4H2.3
			c-0.8,0-1.4-0.6-1.4-1.4V1.8z"/>
	</g>
	<g>
		<path class="st2" d="M2.6,39.8c0-0.8,0.6-1.4,1.4-1.4h50.9c0.8,0,1.4,0.6,1.4,1.4v13.5c0,0.8-0.6,1.4-1.4,1.4H4
			c-0.8,0-1.4-0.6-1.4-1.4V39.8z"/>
	</g>
</g>
<g id="Text">
	<g>
		<text transform="matrix(1 0 0 1 40.8517 49.1419)" class="st3 st4 st5">84</text>
	</g>
	<g>
		<text transform="matrix(1 0 0 1 74.0573 408.6368)" style="font-family:'SourceSansPro-LightIt'; font-size:8px;">AFP photos</text>
	</g>
	<g>
		<text transform="matrix(1 0 0 1 35.9966 12.0725)" class="st3 st4 st5">88.5</text>
	</g>
</g>
<g id="treemap">
	<g id="zones">
	</g>
	<g id="textes">
	</g>
	<g id="valeurs">
	</g>
</g>
<g id="_x3C_Layer_x3E_">
</g>
<g id="BullesCompareesPlus">
	<g id="zones_1_">
	</g>
	<g id="textes_1_">
	</g>
	<g id="valeurs_1_">
	</g>
	<g id="niveaux">
	</g>
</g>
<g id="Foreground">
</g>
<g id="Layer_1">
</g>
</svg>
